<svg width="240" height="240" viewBox="0 0 240 240" fill="none" xmlns="http://www.w3.org/2000/svg">
<g clip-path="url(#clip0_101_2957)">
<g clip-path="url(#clip1_101_2957)">
<path d="M120 0L61.1182 37.9572V120C61.1182 87.5329 87.5326 61.1179 120 61.1179C152.468 61.1179 178.882 87.5324 178.882 120C178.882 152.468 152.468 178.882 120 178.882C87.5326 178.882 61.1182 152.468 61.1182 120V199.791L120 240C186.168 240 240 186.168 240 120C240 53.8324 186.168 0 120 0Z" fill="white"/>
<path d="M61.1179 120C61.1179 73.0435 82.8604 28.7329 120 0C53.8319 0 0 53.8324 0 120C0 186.168 53.8319 240 120 240C82.8604 211.267 61.1179 166.956 61.1179 120Z" fill="white"/>
<path d="M152.008 107.296H128.1V139.533C128.1 142.321 128.553 144.238 129.459 145.353C130.365 146.469 131.899 147.026 134.094 147.026C135.907 147.026 138.207 146.713 140.96 146.155L142.459 163.128C138.73 164.208 134.547 164.766 129.877 164.766C121.827 164.766 115.693 162.605 111.441 158.318C107.189 153.997 105.028 147.688 105.028 139.394V107.331H82.8281V89.7656H151.973V107.296H152.008Z" fill="white"/>
<path d="M82.5635 30.3213C79.2499 30.3213 76.5635 33.0069 76.5635 36.3213V45.9213C76.5635 49.2357 79.2499 51.9213 82.5635 51.9213C85.8771 51.9213 88.5635 49.2357 88.5635 45.9213V36.3213C88.5635 33.0077 85.8771 30.3213 82.5635 30.3213Z" fill="#7165E3"/>
<path d="M162.191 30.3213C158.877 30.3213 156.191 33.0069 156.191 36.3213V45.9213C156.191 49.2357 158.877 51.9213 162.191 51.9213C165.506 51.9213 168.191 49.2357 168.191 45.9213V36.3213C168.191 33.0077 165.506 30.3213 162.191 30.3213Z" fill="#7165E3"/>
</g>
</g>
<defs>
<clipPath id="clip0_101_2957">
<rect width="240" height="240" fill="white"/>
</clipPath>
<clipPath id="clip1_101_2957">
<rect width="240" height="240" fill="white"/>
</clipPath>
</defs>
</svg>
