<svg width="80" height="30" viewBox="0 0 80 30" fill="none" xmlns="http://www.w3.org/2000/svg">
<path d="M10.28 16.9L8.52 11.88L6.76 16.9H10.28ZM11.32 19.88H5.72L4.82 22.5H0.64L6.38 7.42H10.66L16.4 22.5H12.22L11.32 19.88ZM23.0352 7.42V22.5H19.1152V7.42H23.0352ZM32.9055 10.74V22.5H28.9855V10.74H25.7655V7.42H36.1255V10.74H32.9055ZM42.1523 14.96C42.1523 15.56 42.2657 16.1133 42.4923 16.62C42.719 17.1267 43.0257 17.5667 43.4123 17.94C43.799 18.3133 44.2457 18.6067 44.7523 18.82C45.2723 19.02 45.819 19.12 46.3923 19.12C46.9657 19.12 47.5057 19.02 48.0123 18.82C48.5323 18.6067 48.9857 18.3133 49.3723 17.94C49.7723 17.5667 50.0857 17.1267 50.3123 16.62C50.539 16.1133 50.6523 15.56 50.6523 14.96C50.6523 14.36 50.539 13.8067 50.3123 13.3C50.0857 12.7933 49.7723 12.3533 49.3723 11.98C48.9857 11.6067 48.5323 11.32 48.0123 11.12C47.5057 10.9067 46.9657 10.8 46.3923 10.8C45.819 10.8 45.2723 10.9067 44.7523 11.12C44.2457 11.32 43.799 11.6067 43.4123 11.98C43.0257 12.3533 42.719 12.7933 42.4923 13.3C42.2657 13.8067 42.1523 14.36 42.1523 14.96ZM38.0523 14.96C38.0523 13.84 38.259 12.8 38.6723 11.84C39.0857 10.8667 39.659 10.02 40.3923 9.3C41.1257 8.58 41.999 8.02 43.0123 7.62C44.039 7.20667 45.1657 7 46.3923 7C47.6057 7 48.7257 7.20667 49.7523 7.62C50.779 8.02 51.659 8.58 52.3923 9.3C53.139 10.02 53.719 10.8667 54.1323 11.84C54.5457 12.8 54.7523 13.84 54.7523 14.96C54.7523 16.08 54.5457 17.1267 54.1323 18.1C53.719 19.06 53.139 19.9 52.3923 20.62C51.659 21.34 50.779 21.9067 49.7523 22.32C48.7257 22.72 47.6057 22.92 46.3923 22.92C45.1657 22.92 44.039 22.72 43.0123 22.32C41.999 21.9067 41.1257 21.34 40.3923 20.62C39.659 19.9 39.0857 19.06 38.6723 18.1C38.259 17.1267 38.0523 16.08 38.0523 14.96ZM62.1484 14.16H62.8884C63.6618 14.16 64.2551 14 64.6684 13.68C65.0818 13.36 65.2884 12.9 65.2884 12.3C65.2884 11.7 65.0818 11.24 64.6684 10.92C64.2551 10.6 63.6618 10.44 62.8884 10.44H62.1484V14.16ZM70.7684 22.5H65.8884L62.1484 16.7V22.5H58.2284V7.42H64.3284C65.1684 7.42 65.9018 7.54667 66.5284 7.8C67.1551 8.04 67.6684 8.37333 68.0684 8.8C68.4818 9.22667 68.7884 9.72 68.9884 10.28C69.2018 10.84 69.3084 11.44 69.3084 12.08C69.3084 13.2267 69.0284 14.16 68.4684 14.88C67.9218 15.5867 67.1084 16.0667 66.0284 16.32L70.7684 22.5ZM77.3281 7.42V22.5H73.4081V7.42H77.3281Z" fill="#17151D"/>
</svg>
